<svg xmlns="http://www.w3.org/2000/svg" version="1.1" xmlns:xlink="http://www.w3.org/1999/xlink" xmlns:svgjs="http://svgjs.dev/svgjs" width="1000" height="515" viewBox="0 0 1000 515"><g transform="matrix(1,0,0,1,-0.6057248877899042,0.5088883973955944)"><svg viewBox="0 0 396 204" data-background-color="#fbeaab" preserveAspectRatio="xMidYMid meet" height="515" width="1000" xmlns="http://www.w3.org/2000/svg" xmlns:xlink="http://www.w3.org/1999/xlink"><g id="tight-bounds" transform="matrix(1,0,0,1,0.2398940508120404,-0.20157909333727275)"><svg viewBox="0 0 395.52 204.40315818667455" height="204.40315818667455" width="395.52"><g><svg viewBox="0 0 395.52 204.40315818667455" height="204.40315818667455" width="395.52"><g transform="matrix(1,0,0,1,0,104.14298982999001)"><svg viewBox="0 0 395.52 100.26016835668452" height="100.26016835668452" width="395.52"><g id="textblocktransform"><svg viewBox="0 0 395.52 100.26016835668452" height="100.26016835668452" width="395.52" id="textblock"><g><svg viewBox="0 0 395.52 61.39760773115809" height="61.39760773115809" width="395.52"><g transform="matrix(1,0,0,1,0,0)"><svg width="395.52" viewBox="0.38793468475341797 -16.421659469604492 292.96112060546875 45.47711181640625" height="61.39760773115809" data-palette-color="#ffa96a"><path d="M1.107 15.07c-0.421-0.071-0.658-0.446-0.712-1.125v0c-0.016-0.104-0.005-0.271 0.034-0.501v0c0.055-0.322 0.203-0.797 0.445-1.426v0c0.137-0.41 0.249-0.732 0.336-0.967 0.095-0.241 0.169-0.421 0.224-0.54v0c1.75-4.423 3.394-8.296 4.931-11.62v0l6.023-14.832c0.011-0.066 0.077-0.156 0.198-0.27 0.121-0.115 0.25-0.177 0.387-0.188v0l0.237 0.04c-0.006 0.033 0.041 0.058 0.139 0.074v0c0.394 0.067 0.843 0.092 1.346 0.076v0c0.503-0.016 0.949 0.009 1.337 0.074v0c0.716 0.121 1.375 0.284 1.976 0.488v0c0.296 0.05 0.618 0.122 0.968 0.214 0.356 0.094 0.728 0.174 1.116 0.24v0c0.131 0.022 0.285 0.014 0.46-0.023v0l0.877 0.149 1.115 0.188 1.181 0.15c0.236 0.006 0.514 0.036 0.837 0.091v0c0.263 0.045 0.397 0.05 0.402 0.018v0l0.779 0.132 1.657 0.28 2.05 0.348c1.821 0.309 3.018 0.545 3.592 0.71v0c0.099 0.017 0.238 0.051 0.419 0.102 0.175 0.043 0.274 0.1 0.296 0.171v0c0.223 0.038 0.453 0.06 0.688 0.066 0.236 0.006 0.449 0.025 0.64 0.058v0c0.477-0.021 0.926 0.005 1.346 0.076v0c0.197 0.033 0.383 0.116 0.556 0.247v0c0.18 0.132 0.386 0.218 0.616 0.256v0l0.245-0.009 0.148 0.025c0.087 0.082 0.178 0.189 0.271 0.32 0.098 0.138 0.142 0.24 0.13 0.306v0l0.799 15.988c0.393 3.982 0.653 8.177 0.778 12.587v0c-0.032 0.191-0.002 0.412 0.09 0.665v0c-0.006 0.236-0.009 0.553-0.009 0.952 0 0.399-0.022 0.73-0.067 0.992v0c0.011 0.137-0.003 0.317-0.041 0.541v0c-0.078 0.46-0.24 0.818-0.486 1.074v0c-0.165 0.175-0.375 0.241-0.632 0.197v0l-0.641-0.109c-0.486-0.082-0.858-0.162-1.115-0.239v0l-1.262-0.214-1.223-0.208-0.976-0.165c-0.263-0.045-0.392-0.083-0.386-0.116v0l-3.066-0.52 0.016-0.098c-0.12-0.088-0.279-0.149-0.476-0.183v0c0 0-0.008 0.009-0.025 0.027-0.022 0.01-0.052 0.028-0.09 0.055v0c-0.011 0.066-0.05 0.093-0.116 0.082v0l-0.138-0.023-0.394-0.067c-0.153-0.094-0.473-0.182-0.959-0.264v0c-0.962-0.231-1.722-0.393-2.281-0.488v0c-0.142-0.322-0.243-0.94-0.304-1.857-0.068-0.918-0.122-1.931-0.164-3.04v0c0.022-0.53 0.017-0.9-0.015-1.108v0c-0.706 0.016-1.611-0.07-2.715-0.258v0l-1.519-0.257-1.409-0.239-0.61 1.499c-0.785 2.078-1.353 3.354-1.703 3.829v0c-0.131-0.022-0.298-0.017-0.5 0.017v0c-0.071 0.022-0.135 0.038-0.191 0.049-0.048 0.005-0.072 0.008-0.073 0.008v0l-0.197-0.034c-0.191-0.032-0.33-0.09-0.417-0.172v0c-0.055-0.077-0.131-0.124-0.23-0.14v0l-2.215-0.274-0.779-0.132-0.729-0.124c-0.143 0.043-0.312 0.048-0.51 0.015v0l-0.187-0.032-4.496-0.762-0.434-0.073c-0.367-0.028-1.103-0.136-2.207-0.323v0l-1.272-0.216c-0.262-0.011-0.636-0.057-1.122-0.14v0zM25.681 6.943c0.041-1.636 0.061-2.454 0.061-2.455v0c-0.022-0.47-0.04-1.359-0.055-2.666v0c-0.01-0.34-0.022-1.245-0.037-2.715v0c0.002-1.609 0.003-2.413 0.003-2.413v0c0.012-0.667 0.013-1.252 0.003-1.754v0l0.06-0.65c-0.072-0.174-0.097-0.327-0.075-0.458v0l0.001-0.305c-0.044 0.06-0.077 0.156-0.099 0.288v0c-0.022 0.131-0.069 0.208-0.141 0.23v0l-0.031 0.187-0.207 0.624c-0.071 0.218-0.153 0.464-0.247 0.739-0.099 0.267-0.209 0.556-0.33 0.867v0l-0.469 1.331c-0.708 1.983-1.123 3.133-1.244 3.45v0c-0.093 0.349-0.263 0.872-0.509 1.567v0c-0.105 0.219-0.228 0.55-0.371 0.992v0l-0.776 2.181 2.495 0.423 0.352-0.042 0.098 0.017c0.394 0.067 0.681 0.149 0.861 0.247v0c0.131 0.022 0.249 0.066 0.353 0.131 0.109 0.073 0.211 0.134 0.304 0.184zM52.325 23.132c-0.325-0.036-0.599-0.1-0.824-0.192v0l-0.984-0.109-0.785-0.087-0.438-0.049-2.157-0.782-0.105-0.414c-0.033-0.004-0.029-0.188 0.011-0.553v0c0.042-0.988 0.135-2.121 0.277-3.4v0c0.102-0.921 0.151-1.663 0.146-2.227v0c0.101-0.914 0.161-1.602 0.179-2.063v0l0.191-1.73c0.008-1.522 0.095-3.189 0.263-5.001 0.167-1.806 0.345-3.56 0.534-5.263v0l0.656-5.009c0.095-0.553 0.206-1.403 0.333-2.548v0c0.127-1.146 0.205-2 0.233-2.56v0c-0.016-0.766 0.259-1.303 0.823-1.609v0c0.342-0.123 0.924-0.139 1.746-0.048v0c1.213 0.134 2.773 0.274 4.682 0.418v0l1.094 0.021c1.983 0.086 3.219 0.156 3.71 0.21v0c0.464 0.051 0.79 0.104 0.978 0.159v0c0.46 0.085 0.764 0.185 0.912 0.303 0.155 0.118 0.292 0.297 0.414 0.538 0.127 0.249 0.216 0.443 0.267 0.583v0c0.333 0.567 0.662 1.167 0.988 1.8v0c0.491 0.953 0.892 1.695 1.202 2.226v0l2.689 5.329 1.319 2.531c0.095-0.855 0.203-1.524 0.323-2.007v0l0.507-4.572 0.526-3.473c0.063-0.261 0.116-0.44 0.16-0.536 0.044-0.096 0.102-0.163 0.173-0.202 0.071-0.039 0.126-0.073 0.162-0.102v0c0.428-0.288 0.849-0.493 1.266-0.615v0c0.332-0.03 0.597-0.034 0.796-0.012v0l2.803 0.311 0.586 0.065c0.261 0.063 0.72 0.13 1.376 0.203v0c0.722 0.08 1.294 0.16 1.714 0.24v0l1.67 0.185 1.382 0.154 0.586 0.065c0.855 0.095 1.417 0.291 1.685 0.589v0c0.328 0.305 0.444 0.898 0.346 1.779v0l-0.104 0.491-0.137 0.78c-0.054 0.188-0.1 0.448-0.137 0.78v0l-0.065 0.586-0.044 0.398 0.045 0.498-0.175 1.58c-0.095 0.553-0.217 1.502-0.366 2.847v0l-0.403 3.638c-0.128 0.851-0.277 2.045-0.448 3.582v0l-0.316 2.853-0.187 1.679-0.86 7.763-0.406 1.846c-0.21 0.741-0.522 1.173-0.939 1.295v0l-0.84-0.043-0.83-0.142-2.216-0.246-2.902-0.322-3.002-0.333-0.735-0.081c-0.663-0.006-1.294-0.16-1.891-0.462v0c-0.277-0.165-0.581-0.413-0.913-0.745v0l-4.229-7.592c0.004-0.033-0.29-0.679-0.882-1.939v0c-0.222-0.42-0.432-0.792-0.631-1.117v0c-0.045-0.139-0.106-0.253-0.183-0.342-0.071-0.088-0.123-0.134-0.156-0.138v0c-0.298-0.033-0.462 0.08-0.49 0.338v0l-0.12 1.084c-0.07 0.328-0.146 0.866-0.23 1.614v0l-0.212 1.918-0.209 1.879c-0.11 0.384-0.197 0.87-0.262 1.46v0l-0.109 0.984-0.082 0.735 0.022 0.254c-0.029 0.265-0.177 0.413-0.441 0.444v0c-0.18 0.114-0.446 0.118-0.797 0.013v0c-1.127-0.058-2.022-0.09-2.685-0.097v0c-0.395-0.01-1.086-0.037-2.074-0.079-0.995-0.043-1.919-0.112-2.774-0.207zM91.124 26.959c-0.226-0.015-0.433-0.119-0.621-0.312-0.188-0.193-0.318-0.442-0.391-0.747v0c-0.094-0.601-0.149-1.266-0.167-1.996v0c-0.018-0.235-0.014-0.549 0.012-0.941v0l0.043-0.639 0.458-6.123c0.138-2.075 0.324-4.114 0.558-6.116v0l1.04-15.596c0.022-0.333 0.246-0.485 0.672-0.456v0c2.275 0.152 3.972 0.248 5.092 0.289v0l4.939 0.33c0.1 0.007 0.181-0.005 0.243-0.034 0.069-0.029 0.153-0.04 0.253-0.033v0c0.43-0.038 1.023-0.015 1.779 0.068v0c0.559 0.037 1.147 0.127 1.766 0.268v0c0.191 0.146 0.338 0.19 0.442 0.13v0c0.067 0.004 0.202-0.02 0.406-0.073v0c0.492 0.033 0.876 0.092 1.151 0.177 0.275 0.085 0.488 0.25 0.639 0.493v0c0.14 0.303 0.246 0.674 0.316 1.114v0c0.012 0.328-0.018 1.018-0.088 2.069v0l-0.642 9.628-0.05 0.748c-0.051 0.257-0.107 0.848-0.168 1.773v0c-0.066 0.984-0.15 1.754-0.254 2.308v0l-0.198 2.222c-0.066 0.49-0.124 1.114-0.175 1.873v0l-0.093 0.785-0.211 3.163c-0.132 1.976-0.327 3.65-0.585 5.022v0c-0.031 0.459-0.178 0.91-0.441 1.354v0c-0.592-0.039-1.449-0.063-2.571-0.071v0c-0.525-0.035-0.874-0.025-1.044 0.03v0l-0.499-0.033-0.14-0.009c-0.233-0.016-0.347-0.057-0.342-0.123v0c-0.262-0.084-0.409-0.128-0.443-0.13v0l-0.402 0.174-4.54-0.303c-0.035 0.031-0.303 0.03-0.802-0.003v0l-1.876-0.125-1.826-0.122zM119.804 28.449c-0.327-0.006-0.589-0.044-0.788-0.114v0l-0.99-0.018-0.89-0.016-0.35-0.007-2.21-0.58-0.192-0.404c-0.033-0.001-0.047-0.184-0.04-0.551v0c0.008-0.46-0.001-0.837-0.03-1.13v0l-0.008-2.281c-0.024-0.494-0.027-1.237-0.009-2.231v0l-0.031-3.811c0.015-0.82 0.069-1.956 0.163-3.407v0l0.081-1.679c0.086-1.059 0.151-2.791 0.195-5.197v0l0.006-0.35 0.012-0.64c-0.065-0.101-0.095-0.282-0.09-0.542v0l-0.044-0.351c0.015-0.827 0.081-1.682 0.197-2.567v0c0.087-1.125 0.139-2.148 0.156-3.067v0l-0.025-1.391c-0.027-0.361-0.036-0.787-0.026-1.281v0c0.001-0.033-0.025-0.084-0.077-0.151-0.045-0.068-0.068-0.135-0.067-0.201v0c0.006-0.333 0.145-0.611 0.416-0.833 0.264-0.229 0.594-0.389 0.989-0.482v0c0.536-0.15 1.214-0.218 2.034-0.203v0l8.368 0.153 3.86 0.071c0.033 0.001 0.083 0.032 0.148 0.093 0.059 0.068 0.121 0.119 0.187 0.153v0c0.262 0.238 0.584 0.691 0.965 1.358v0c0.096 0.202 0.199 0.427 0.308 0.676 0.115 0.249 0.265 0.638 0.449 1.168v0c0.224 0.531 0.522 1.346 0.895 2.447v0l0.572 1.54c0.251 0.498 0.535 1.213 0.851 2.146v0c0.095 0.262 0.197 0.527 0.306 0.796 0.109 0.262 0.21 0.527 0.305 0.796v0c0.062 0.235 0.136 0.409 0.221 0.524 0.078 0.115 0.117 0.189 0.116 0.222v0c0.224 0.531 0.465 0.799 0.725 0.803v0c0.333 0.006 0.601-0.252 0.804-0.775v0c0.034-0.033 0.069-0.105 0.104-0.218 0.035-0.113 0.122-0.301 0.261-0.565v0l0.769-1.617 2.057-4.173 0.872-1.764c0.105-0.265 0.186-0.487 0.243-0.666 0.05-0.179 0.109-0.301 0.176-0.367v0c0.139-0.291 0.461-0.795 0.968-1.512v0c0.172-0.264 0.322-0.461 0.451-0.592v0c0.101-0.032 0.168-0.08 0.203-0.146 0.034-0.059 0.085-0.088 0.151-0.088v0l3.86 0.071 8.358 0.153 0.75 0.014 0.49 0.008 0.64 0.012 1.09 0.02c0.067 0.001 0.145 0.249 0.236 0.745v0l0.062 4.852c0.041 1.388 0.035 3.565-0.02 6.53v0l-0.052 2.87c-0.02 1.12-0.093 2.372-0.219 3.756-0.125 1.385-0.208 2.273-0.249 2.666v0l-0.118 0.988-0.032 1.74c0.025 0.461 0.029 1.151 0.012 2.071v0c-0.018 0.993-0.015 1.737 0.01 2.23v0c-0.018 0.96 0.004 1.62 0.063 1.982v0l-0.026 1.429-0.01 0.55-0.157 0.397-2.239 0.5-0.34-0.007-0.89-0.016-0.99-0.018c-0.235 0.062-0.515 0.091-0.842 0.085v0c-0.593-0.011-1.419-0.059-2.478-0.146v0l-1.228-0.072c-0.233-0.038-0.499-0.076-0.798-0.115-0.293-0.039-0.656-0.062-1.089-0.07v0l-1.927-0.185c-0.06-0.001-0.107 0.015-0.141 0.048v0l-0.4-0.008c-0.167-0.003-0.263-0.185-0.29-0.545v0c-0.181-0.663-0.257-1.788-0.229-3.375v0c0.019-1.053 0.018-1.877-0.004-2.47v0l-0.002-2.671c-0.022-0.594-0.023-1.454-0.002-2.58v0c0.005-0.26-0.11-0.392-0.343-0.397v0c-0.133-0.002-0.266 0.158-0.399 0.483v0l-0.575 1.33-0.462 1.232c-0.07 0.192-0.14 0.388-0.211 0.586-0.07 0.199-0.157 0.377-0.26 0.535v0l-0.261 0.595c-0.305 0.655-0.695 1.388-1.17 2.199v0c-0.516 0.884-1.142 1.583-1.879 2.096v0c-0.398 0.226-0.743 0.336-1.036 0.332v0l-0.75-0.014c-0.393-0.007-0.723-0.047-0.988-0.118v0l-1.09-0.02-0.989-0.018c-1.274-2.137-2.469-4.469-3.583-6.997v0l-0.707-1.843c-0.192-0.43-0.318-0.646-0.378-0.647v0c-0.233-0.004-0.352 0.124-0.357 0.383v0l-0.042 2.33c-0.042 2.306-0.107 4.005-0.194 5.097v0c-0.098 1.712-0.236 2.896-0.415 3.553v0c-0.041 0.426-0.142 0.638-0.301 0.635v0l-0.35-0.006-0.249-0.055c-1.121 0.046-2.012 0.097-2.673 0.151v0c-0.394 0.026-1.088 0.063-2.083 0.112-0.988 0.049-1.912 0.065-2.771 0.049zM169.148 28.608c-0.167 0.006-0.414-0.008-0.742-0.042-0.335-0.041-0.733-0.069-1.194-0.086v0l-1.049-0.211c-0.168-0.02-0.292-0.056-0.374-0.106-0.088-0.043-0.116-0.082-0.084-0.117v0c-0.032-0.859-0.121-1.997-0.267-3.412v0c-0.018-0.493-0.051-0.929-0.099-1.308-0.047-0.379-0.093-0.697-0.136-0.955v0l-0.179-2.125c-0.021-0.56-0.081-1.268-0.179-2.125v0l-0.107-1.527c-0.047-1.252-0.099-2.225-0.158-2.916v0c-0.059-0.692-0.13-2.143-0.212-4.355v0c-0.077-2.079-0.14-4.221-0.189-6.428-0.049-2.213-0.027-4.312 0.066-6.296v0c-0.013-0.36 0.369-0.671 1.146-0.934v0c0.497-0.085 1.322-0.149 2.475-0.192v0c2.671-0.099 4.632-0.219 5.881-0.359v0c3.888-0.211 6.822-0.354 8.8-0.427v0l2.168-0.081c2.707-0.034 4.789-0.015 6.247 0.058v0c0.526-0.02 0.929 0.593 1.209 1.837v0c0.109 0.229 0.244 0.822 0.406 1.776v0c0.118 0.489 0.274 1.094 0.468 1.814v0c0.04 0.192 0.054 0.382 0.041 0.569-0.007 0.18-0.009 0.287-0.008 0.32v0c-0.021 0.328-0.198 0.498-0.532 0.51v0c-0.128-0.029-0.325-0.038-0.591-0.028v0c-1.386 0.052-3.08 0.231-5.083 0.539v0l-2.611 0.298c-1.081 0.174-1.934 0.285-2.56 0.335v0c-0.1 0.004-0.226 0.209-0.377 0.614v0c-0.117 0.431-0.227 1.426-0.329 2.985v0l-0.055 1.233c0.016 0.433 0.076 0.704 0.181 0.813 0.097 0.11 0.313 0.158 0.646 0.147v0l4.397-0.164c1.286-0.048 2.758-0.019 4.416 0.086v0l0.589-0.022c0.437 0.084 0.706 0.241 0.809 0.47v0c0.14 0.188 0.232 0.398 0.273 0.631v0l0.364 4.389 0.005 0.15c0.021 0.56-0.56 0.911-1.742 1.056v0c-0.687 0.192-2.003 0.325-3.948 0.397v0c-1.685 0.063-2.775 0.087-3.269 0.071v0c-0.953 0.035-1.528 0.074-1.727 0.114v0c-0.356 0.113-0.579 0.312-0.669 0.596-0.09 0.284-0.122 0.755-0.097 1.414v0c0.016 0.426 0.005 1.037-0.032 1.833v0c-0.019 0.394-0.012 1.021 0.02 1.88v0c2.145-0.08 3.726-0.172 4.743-0.276v0c1.116-0.142 2.696-0.25 4.741-0.327v0c0.133-0.005 0.271 0.107 0.413 0.335v0c0.179 0.32 0.469 1.053 0.872 2.199v0c0.224 0.652 0.452 1.468 0.681 2.447v0c0.075 0.231 0.118 0.476 0.128 0.735v0c0.026 0.693-0.291 1.052-0.951 1.077v0c-0.853 0.032-2.004 0.108-3.454 0.228v0c-0.757 0.095-1.942 0.172-3.554 0.232v0c-3.464 0.129-6.069 0.242-7.812 0.341v0zM216.334 25.604c-1.048 0.103-1.803 0.16-2.265 0.172v0l-1.731 0.17-1.672 0.164-2.02 0.198c-0.259 0.025-0.526 0.001-0.801-0.072v0c-0.335-0.068-0.635-0.088-0.901-0.062v0l-0.443 0.093c-0.335-0.068-0.515-0.231-0.54-0.489v0l-4.975-15.278c-1.324-4.345-2.511-8.321-3.562-11.929v0c-0.179-0.116-0.37-0.53-0.574-1.24v0c-0.065-0.389-0.138-0.995-0.218-1.817v0c-0.042-0.425-0.003-0.783 0.115-1.077 0.119-0.293 0.327-0.454 0.626-0.483v0l0.687-0.067 1.135-0.112c0.231 0.038 0.642 0.027 1.232-0.03v0l2.225-0.168 0.398-0.039 2.11-0.207 0.303 0.02c0.036 0.03 0.071 0.043 0.104 0.04 0.033-0.003 0.05-0.005 0.05-0.004v0l0.06 0.094c0.033-0.003 0.071-0.024 0.114-0.061 0.05-0.038 0.108-0.061 0.175-0.068v0c0.186-0.085 0.312-0.131 0.378-0.137v0l0.149-0.015 0.453 0.006c0.362-0.002 1.066-0.054 2.115-0.157v0c0.338 0.034 0.72 0.03 1.144-0.012v0c0.195 0.282 0.418 0.776 0.668 1.482 0.249 0.699 0.517 1.483 0.803 2.353v0c0.115 0.484 0.382 1.503 0.803 3.056v0c0.141 0.482 0.315 1.094 0.521 1.838v0l0.453 1.543c0.003 0.033 0.026 0.091 0.068 0.174 0.041 0.076 0.068 0.181 0.081 0.314v0l0.246 0.971c0.092 0.252 0.195 0.654 0.309 1.205v0c0.083 0.159 0.153 0.36 0.21 0.603 0.057 0.242 0.111 0.445 0.16 0.607v0c0.049 0.163 0.098 0.315 0.145 0.458 0.047 0.143 0.079 0.297 0.096 0.463v0l0.143 0.438 0.069 0.194c0.009 0.093 0.05 0.169 0.123 0.229v0l0.03 0.299 0.07-0.309-0.024-0.239 0.031-0.204c-0.01-0.1 0.009-0.252 0.055-0.457v0c-0.022-0.226-0.006-0.542 0.048-0.949v0c0.047-0.206 0.076-0.416 0.089-0.632 0.012-0.216 0.025-0.424 0.039-0.627v0l0.079-1.243c0.047-0.206 0.077-0.409 0.09-0.612 0.014-0.196 0.018-0.327 0.012-0.393v0l0.001-0.503c0.463-5.049 0.827-8.267 1.093-9.653v0c0.014-0.202 0.051-0.397 0.113-0.583 0.062-0.187 0.188-0.34 0.377-0.459v0c0.027-0.07 0.128-0.13 0.304-0.181 0.176-0.051 0.312-0.098 0.408-0.14v0c0.681-0.161 1.171-0.256 1.47-0.285v0l0.836-0.082 1.423-0.14 1.726-0.119c0.301-0.003 0.647-0.023 1.039-0.062v0l0.15-0.014c0.031-0.03 0.055-0.056 0.072-0.078 0.012-0.015 0.018-0.022 0.018-0.022v0c0.133-0.013 0.219 0.009 0.258 0.066v0c0.066-0.007 0.107 0 0.122 0.018 0.021 0.011 0.032 0.017 0.032 0.017v0c0.594-0.025 1.285-0.076 2.075-0.154v0c0.328 0.001 0.672-0.016 1.03-0.05v0c0.299-0.029 0.468-0.012 0.507 0.05v0c0.033-0.003 0.081-0.025 0.145-0.064 0.063-0.04 0.128-0.063 0.194-0.069v0c0.06-0.073 0.219-0.122 0.478-0.148v0l0.298-0.029 0.588-0.058c0.524-0.051 0.843-0.016 0.955 0.108v0c0.362 0.963 0.699 2.172 1.009 3.628v0l0.245 1.072c0.449 1.845 0.885 3.393 1.31 4.644v0l0.148 0.588c0.167 0.68 0.259 1.1 0.274 1.26v0c0.066 0.328 0.2 0.848 0.404 1.558v0c0.141 0.75 0.275 1.266 0.404 1.548v0c0.035 0.358 0.109 0.766 0.22 1.224v0c0.049 0.163 0.095 0.282 0.136 0.358 0.034 0.077 0.053 0.132 0.056 0.166v0c0.016 0.166 0.048 0.314 0.094 0.443v0l0.078 0.283c0.051-0.166 0.091-0.267 0.121-0.303v0l-0.044-0.448-0.003-0.542 0.078-1.254 0.095-1.597c-0.009-0.435 0.019-0.97 0.083-1.605v0l0.025-1.289c0.017-0.169 0.03-0.304 0.04-0.406 0.004-0.101 0.004-0.168 0-0.201v0c0.109-0.935 0.174-1.638 0.196-2.109v0l0.098-1.045c0.219-2.48 0.429-4.192 0.632-5.136v0c0.045-0.567 0.166-1.044 0.362-1.432v0c0.199-0.02 0.41-0.057 0.632-0.112 0.229-0.056 0.456-0.095 0.681-0.117v0c0.265-0.026 0.561-0.088 0.886-0.188v0l0.09-0.008c0.1-0.01 0.153 0.019 0.159 0.084v0c0 0 0.002 0.017 0.005 0.05 0.003 0.033 0.021 0.048 0.055 0.045v0c0.133-0.013 0.231-0.039 0.293-0.079 0.063-0.04 0.111-0.061 0.145-0.064v0l0.04-0.105 2.657-0.26 0.348-0.035c0.358-0.035 0.668-0.082 0.931-0.141v0l1.224-0.12c0.624-0.061 1.049-0.133 1.275-0.216v0l1.135-0.111 0.736-0.072c0.265-0.026 0.485 0.1 0.66 0.377 0.175 0.284 0.282 0.622 0.32 1.014v0c-0.124 0.441-0.211 1.062-0.259 1.864v0c0.003 0.368 0.028 0.798 0.076 1.289v0c-0.589 5.196-1.244 9.852-1.965 13.968v0l-2.058 14.47c-0.292 0.096-0.448 0.211-0.468 0.348v0l0.023 0.238-0.492-0.001c-0.265 0.026-0.463 0.062-0.592 0.108v0l-0.583 0.107-2.458 0.241c-1.281 0.126-2.234 0.202-2.861 0.231v0l-2.816 0.276-2.409 0.236-1.433 0.141c-0.328-0.001-0.788 0.027-1.378 0.085v0l-0.493 0.098c-0.335-0.068-0.515-0.231-0.54-0.489v0l-4.899-15.928-1.65 16.57c-0.114 0.54-0.616 0.854-1.505 0.942v0l-2.309 0.226c-0.421 0.075-1.176 0.166-2.264 0.272zM277.487 19.115c-3.868 0.638-6.977 0.833-9.329 0.585v0c-3.259-0.301-5.883-1.422-7.872-3.364v0c-2.323-2.327-3.871-5.835-4.644-10.525v0c-0.553-3.355-0.651-6.264-0.294-8.729 0.364-2.465 1.205-4.577 2.524-6.334v0c1.313-1.75 3.141-3.18 5.485-4.29 2.345-1.103 5.291-1.946 8.836-2.531v0c2.769-0.457 5.444-0.465 8.023-0.025v0c3.171 0.585 5.767 1.847 7.789 3.783v0c2.487 2.299 4.085 5.597 4.793 9.892v0c0.826 5.012 0.724 9.043-0.308 12.091v0c-1.076 2.819-2.943 4.999-5.601 6.539v0c-2.164 1.262-5.298 2.231-9.402 2.908zM276.321 14.442c0.388-0.064 0.657-0.358 0.808-0.883v0c0.314-1.126 0.385-2.827 0.212-5.103v0c-0.141-2.085-0.362-4.038-0.662-5.86v0l-0.322-1.954-0.201-1.223c-0.236-1.434-0.622-3.158-1.157-5.171v0c-0.563-2.184-1.181-3.805-1.856-4.863v0c-0.354-0.509-0.709-0.734-1.064-0.676v0c-0.717 0.118-1.124 0.888-1.22 2.31v0c-0.018 1.942 0.099 3.676 0.35 5.202v0c0.116 1.319 0.402 3.363 0.859 6.132v0c0.306 1.855 0.607 3.376 0.905 4.563v0c0.253 1.533 0.709 3.278 1.37 5.237v0c0.602 1.644 1.262 2.407 1.978 2.289z" opacity="1" transform="matrix(1,0,0,1,0,0)" fill="#ffa96a" class="undefined-text-0" data-fill-palette-color="primary" id="text-0"></path></svg></g></svg></g><g transform="matrix(1,0,0,1,118.31980799999998,80.8117150976856)"><svg viewBox="0 0 158.88038400000002 19.448453258998907" height="19.448453258998907" width="158.88038400000002"><g transform="matrix(1,0,0,1,0,0)"><svg width="158.88038400000002" viewBox="4 -37.599998474121094 412.510009765625 50.5" height="19.448453258998907" data-palette-color="#ceb700"><path d="M4-34.95L22.9-34.95 22.9-32.05 7.5-32.05 7.5-19 20.5-19 20.5-16.1 7.5-16.1 7.5 0 4 0 4-34.95ZM30.4-32.45Q29.35-32.45 28.6-33.2 27.85-33.95 27.85-35.05L27.85-35.05Q27.85-36.15 28.6-36.88 29.35-37.6 30.4-37.6L30.4-37.6Q31.45-37.6 32.2-36.88 32.95-36.15 32.95-35.05L32.95-35.05Q32.95-33.95 32.2-33.2 31.45-32.45 30.4-32.45L30.4-32.45ZM28.65-27.3L32.15-27.3 32.15 0 28.65 0 28.65-27.3ZM52.9-27.8Q57.8-27.8 60.9-24.78 64-21.75 64-16L64-16 64 0 60.55 0 60.55-15.6Q60.55-20.05 58.32-22.4 56.1-24.75 52.25-24.75L52.25-24.75Q48.3-24.75 45.95-22.25 43.6-19.75 43.6-14.9L43.6-14.9 43.6 0 40.1 0 40.1-27.3 43.6-27.3 43.6-22.65Q44.9-25.15 47.35-26.48 49.8-27.8 52.9-27.8L52.9-27.8ZM70.14-13.7Q70.14-17.9 71.84-21.08 73.54-24.25 76.52-25.98 79.49-27.7 83.24-27.7L83.24-27.7Q86.84-27.7 89.74-25.95 92.64-24.2 93.99-21.4L93.99-21.4 93.99-37 97.49-37 97.49 0 93.99 0 93.99-6.1Q92.74-3.25 89.89-1.43 87.04 0.4 83.19 0.4L83.19 0.4Q79.44 0.4 76.47-1.35 73.49-3.1 71.82-6.3 70.14-9.5 70.14-13.7L70.14-13.7ZM93.99-13.65Q93.99-16.95 92.64-19.45 91.29-21.95 88.97-23.3 86.64-24.65 83.84-24.65L83.84-24.65Q80.94-24.65 78.64-23.35 76.34-22.05 75.02-19.58 73.69-17.1 73.69-13.7L73.69-13.7Q73.69-10.35 75.02-7.83 76.34-5.3 78.64-3.98 80.94-2.65 83.84-2.65L83.84-2.65Q86.64-2.65 88.97-4 91.29-5.35 92.64-7.85 93.99-10.35 93.99-13.65L93.99-13.65ZM151.74-27.3L155.19-27.3 146.64 0 143.14 0 135.59-22.9 128.04 0 124.49 0 115.94-27.3 119.49-27.3 126.29-3.55 133.94-27.3 137.44-27.3 144.99-3.5 151.74-27.3ZM158.34-13.7Q158.34-17.9 160.01-21.08 161.69-24.25 164.66-25.98 167.63-27.7 171.38-27.7L171.38-27.7Q175.28-27.7 178.11-25.9 180.94-24.1 182.19-21.3L182.19-21.3 182.19-27.3 185.69-27.3 185.69 0 182.19 0 182.19-6.05Q180.88-3.25 178.06-1.43 175.24 0.4 171.34 0.4L171.34 0.4Q167.63 0.4 164.66-1.35 161.69-3.1 160.01-6.3 158.34-9.5 158.34-13.7L158.34-13.7ZM182.19-13.65Q182.19-16.95 180.84-19.45 179.49-21.95 177.16-23.3 174.84-24.65 172.03-24.65L172.03-24.65Q169.13-24.65 166.84-23.35 164.53-22.05 163.21-19.58 161.88-17.1 161.88-13.7L161.88-13.7Q161.88-10.35 163.21-7.83 164.53-5.3 166.84-3.98 169.13-2.65 172.03-2.65L172.03-2.65Q174.84-2.65 177.16-4 179.49-5.35 180.84-7.85 182.19-10.35 182.19-13.65L182.19-13.65ZM205.73-24.35L198.23-24.35 198.23-7.4Q198.23-4.9 199.18-3.95 200.13-3 202.53-3L202.53-3 205.73-3 205.73 0 201.98 0Q198.28 0 196.48-1.73 194.68-3.45 194.68-7.4L194.68-7.4 194.68-24.35 190.88-24.35 190.88-27.3 194.68-27.3 194.68-34.15 198.23-34.15 198.23-27.3 205.73-27.3 205.73-24.35ZM209.88-13.65Q209.88-17.9 211.58-21.08 213.28-24.25 216.28-25.98 219.28-27.7 223.13-27.7L223.13-27.7Q228.18-27.7 231.46-25.2 234.73-22.7 235.68-18.4L235.68-18.4 231.93-18.4Q231.23-21.35 228.91-23.03 226.58-24.7 223.13-24.7L223.13-24.7Q220.38-24.7 218.18-23.45 215.98-22.2 214.71-19.73 213.43-17.25 213.43-13.65L213.43-13.65Q213.43-10.05 214.71-7.55 215.98-5.05 218.18-3.8 220.38-2.55 223.13-2.55L223.13-2.55Q226.58-2.55 228.91-4.23 231.23-5.9 231.93-8.9L231.93-8.9 235.68-8.9Q234.73-4.7 231.43-2.15 228.13 0.4 223.13 0.4L223.13 0.4Q219.28 0.4 216.28-1.33 213.28-3.05 211.58-6.23 209.88-9.4 209.88-13.65L209.88-13.65ZM255.13-27.8Q258.23-27.8 260.7-26.5 263.18-25.2 264.6-22.53 266.03-19.85 266.03-16L266.03-16 266.03 0 262.58 0 262.58-15.6Q262.58-20.05 260.35-22.4 258.13-24.75 254.28-24.75L254.28-24.75Q250.33-24.75 247.98-22.25 245.63-19.75 245.63-14.9L245.63-14.9 245.63 0 242.13 0 242.13-37 245.63-37 245.63-22.65Q246.93-25.1 249.45-26.45 251.98-27.8 255.13-27.8L255.13-27.8ZM312.17-15.05Q312.17-13.25 312.07-12.3L312.07-12.3 289.42-12.3Q289.57-9.2 290.92-7 292.27-4.8 294.47-3.68 296.67-2.55 299.27-2.55L299.27-2.55Q302.67-2.55 305-4.2 307.32-5.85 308.07-8.65L308.07-8.65 311.77-8.65Q310.77-4.65 307.5-2.13 304.22 0.4 299.27 0.4L299.27 0.4Q295.42 0.4 292.37-1.33 289.32-3.05 287.6-6.23 285.87-9.4 285.87-13.65L285.87-13.65Q285.87-17.9 287.57-21.1 289.27-24.3 292.32-26 295.37-27.7 299.27-27.7L299.27-27.7Q303.17-27.7 306.1-26 309.02-24.3 310.6-21.43 312.17-18.55 312.17-15.05L312.17-15.05ZM308.62-15.15Q308.67-18.2 307.4-20.35 306.12-22.5 303.92-23.6 301.72-24.7 299.12-24.7L299.12-24.7Q295.22-24.7 292.47-22.2 289.72-19.7 289.42-15.15L289.42-15.15 308.62-15.15ZM331.37-27.8Q336.27-27.8 339.37-24.78 342.47-21.75 342.47-16L342.47-16 342.47 0 339.02 0 339.02-15.6Q339.02-20.05 336.8-22.4 334.57-24.75 330.72-24.75L330.72-24.75Q326.77-24.75 324.42-22.25 322.07-19.75 322.07-14.9L322.07-14.9 322.07 0 318.57 0 318.57-27.3 322.07-27.3 322.07-22.65Q323.37-25.15 325.82-26.48 328.27-27.8 331.37-27.8L331.37-27.8ZM352.22-32.45Q351.17-32.45 350.42-33.2 349.67-33.95 349.67-35.05L349.67-35.05Q349.67-36.15 350.42-36.88 351.17-37.6 352.22-37.6L352.22-37.6Q353.27-37.6 353.99-36.88 354.72-36.15 354.72-35.05L354.72-35.05Q354.72-33.95 353.99-33.2 353.27-32.45 352.22-32.45L352.22-32.45ZM353.92-27.3L353.92 6.45Q353.92 9.75 352.27 11.33 350.62 12.9 347.32 12.9L347.32 12.9 344.87 12.9 344.87 9.9 346.77 9.9Q348.72 9.9 349.57 9.08 350.42 8.25 350.42 6.3L350.42 6.3 350.42-27.3 353.92-27.3ZM373.87 0.4Q370.02 0.4 366.94-1.33 363.87-3.05 362.09-6.23 360.31-9.4 360.31-13.65L360.31-13.65Q360.31-17.9 362.12-21.08 363.92-24.25 367.02-25.98 370.12-27.7 373.97-27.7L373.97-27.7Q377.81-27.7 380.94-25.98 384.06-24.25 385.84-21.08 387.62-17.9 387.62-13.65L387.62-13.65Q387.62-9.45 385.81-6.25 384.02-3.05 380.87-1.33 377.72 0.4 373.87 0.4L373.87 0.4ZM373.87-2.65Q376.56-2.65 378.87-3.88 381.17-5.1 382.59-7.58 384.02-10.05 384.02-13.65L384.02-13.65Q384.02-17.25 382.62-19.73 381.22-22.2 378.92-23.43 376.62-24.65 373.92-24.65L373.92-24.65Q371.22-24.65 368.92-23.43 366.62-22.2 365.24-19.73 363.87-17.25 363.87-13.65L363.87-13.65Q363.87-10.05 365.24-7.58 366.62-5.1 368.89-3.88 371.17-2.65 373.87-2.65L373.87-2.65ZM412.91-27.3L416.51-27.3 400.31 12.85 396.66 12.85 401.96-0.15 390.76-27.3 394.61-27.3 403.91-4 412.91-27.3Z" opacity="1" transform="matrix(1,0,0,1,0,0)" fill="#ceb700" class="undefined-text-1" data-fill-palette-color="secondary" id="text-1"></path></svg></g></svg></g></svg></g></svg></g><g transform="matrix(1,0,0,1,146.29413211931012,0)"><svg viewBox="0 0 102.93173576137973 100.26016835668452" height="100.26016835668452" width="102.93173576137973"><g><svg xmlns="http://www.w3.org/2000/svg" xmlns:xlink="http://www.w3.org/1999/xlink" version="1.1" x="0" y="0" viewBox="2 2.5 19.293251037597656 18.792499542236328" enable-background="new 0 0 24 24" xml:space="preserve" height="100.26016835668452" width="102.93173576137973" class="icon-icon-0" data-fill-palette-color="accent" id="icon-0"><path d="M9 2.5c-3.859 0-7 3.14-7 7s3.141 7 7 7 7-3.14 7-7S12.859 2.5 9 2.5zM9 14.5c-2.757 0-5-2.243-5-5s2.243-5 5-5 5 2.243 5 5S11.757 14.5 9 14.5z" fill="#ceb700" data-fill-palette-color="accent"></path><path d="M15.707 14.293l-1.414 1.414L19.586 21c0.391 0.39 1.024 0.39 1.414 0 0.391-0.391 0.391-1.024 0-1.414L15.707 14.293z" fill="#ceb700" data-fill-palette-color="accent"></path></svg></g></svg></g><g></g></svg></g><defs></defs></svg><rect width="395.52" height="204.40315818667455" fill="none" stroke="none" visibility="hidden"></rect></g></svg></g></svg>